# xmcd
#
# Track frame offsets: 
#        183
#        25295
#        40510
#
# Disc length: 797 seconds
#
# Revision: 3
# Processed by: cddbd v1.5.1PL0 Copyright (c) Steve Scherf et al.
# Submitted via: ExactAudioCopy v0.90b4
#
DISCID=18031b03
DTITLE=Nina Simone - My Baby Just Cares For Me
DYEAR=1982
DGENRE=Vocal
TTITLE0=My Baby Just Cares For Me (Special Extended Smoochtime Version
TTITLE0=)
TTITLE1=Love Me Or Leave Me
TTITLE2=Little Girl Blue
EXTD=ID3G:   0
EXTT0=
EXTT1=
EXTT2=
PLAYORDER=
